<?xml version="1.0" encoding="UTF-8" standalone="no"?>
<!-- Created with Inkscape (http://www.inkscape.org/) -->

<svg
   width="199.25496"
   height="83.141006"
   viewBox="0 0 199.25496 83.141006"
   version="1.1"
   id="svg1"
   xml:space="preserve"
   inkscape:version="1.4.3 (0d15f75, 2025-12-25)"
   sodipodi:docname="entra.svg"
   xmlns:inkscape="http://www.inkscape.org/namespaces/inkscape"
   xmlns:sodipodi="http://sodipodi.sourceforge.net/DTD/sodipodi-0.dtd"
   xmlns="http://www.w3.org/2000/svg"
   xmlns:svg="http://www.w3.org/2000/svg"><sodipodi:namedview
     id="namedview1"
     pagecolor="#ffffff"
     bordercolor="#000000"
     borderopacity="0.25"
     inkscape:showpageshadow="2"
     inkscape:pageopacity="0.0"
     inkscape:pagecheckerboard="0"
     inkscape:deskcolor="#d1d1d1"
     inkscape:document-units="px"
     inkscape:zoom="2.5766667"
     inkscape:cx="81.500646"
     inkscape:cy="-5.2393272"
     inkscape:window-width="1920"
     inkscape:window-height="991"
     inkscape:window-x="-9"
     inkscape:window-y="-9"
     inkscape:window-maximized="1"
     inkscape:current-layer="layer1" /><defs
     id="defs1" /><g
     inkscape:label="Layer 1"
     inkscape:groupmode="layer"
     id="layer1"
     transform="translate(-52.275551,-77.201816)"><g
       id="g1"
       transform="matrix(4.7118202,0,0,5.196313,52.275534,72.005503)"
       style="stroke-width:0.202096"><path
         d="m 3.802,14.032 c 0.388,0.242 1.033,0.511 1.715,0.511 0.621,0 1.198,-0.18 1.676,-0.487 0,0 0.001,0 0.002,-10e-4 L 9,12.927 V 17 C 8.714,17 8.426,16.922 8.176,16.766 Z"
         fill="#225086"
         id="path1"
         style="stroke-width:0.202096" /><path
         d="m 7.853,1.507 -7.5,8.46 c -0.579,0.654 -0.428,1.642 0.323,2.111 0,0 2.776,1.735 3.126,1.954 0.388,0.242 1.033,0.511 1.715,0.511 0.621,0 1.198,-0.18 1.676,-0.487 0,0 0.001,0 0.002,-10e-4 L 9,12.927 4.636,10.199 9.001,5.275 V 1 c 0,0 0,0 0,0 C 8.577,1 8.154,1.169 7.854,1.507 Z"
         fill="#66ddff"
         id="path2"
         style="stroke-width:0.202096" /><polygon
         points="9.001,5.276 9,5.275 4.636,10.199 4.688,10.231 9,12.927 9.001,12.927 "
         fill="#cbf8ff"
         id="polygon2"
         style="stroke-width:0.202096" /><path
         d="m 17.324,12.078 c 0.751,-0.469 0.902,-1.457 0.323,-2.111 L 12.726,4.416 C 12.329,4.231 11.884,4.125 11.413,4.125 10.488,4.125 9.661,4.524 9.111,5.151 L 9.002,5.274 v 0 c 0,0 4.364,4.924 4.364,4.924 v 0 c 0,0 0,0 0,0 l -4.365,2.728 v 4.073 c 0.287,0 0.573,-0.078 0.823,-0.234 l 7.5,-4.688 z"
         fill="#074793"
         id="path3"
         style="stroke-width:0.202096" /><path
         d="m 9.001,1 v 4.275 c 0,0 0.109,-0.123 0.109,-0.123 0.55,-0.627 1.377,-1.026 2.302,-1.026 0.472,0 0.916,0.107 1.313,0.291 L 10.146,1.508 C 9.847,1.17 9.423,1.001 9,1.001 Z"
         fill="#0294e4"
         id="path4"
         style="stroke-width:0.202096" /><polygon
         points="13.365,10.199 9.001,5.276 9.001,12.926 "
         fill="#96bcc2"
         id="polygon4"
         style="stroke-width:0.202096" /></g><text
       xml:space="preserve"
       style="font-stretch:condensed;font-size:25.6286px;font-family:'Bernard MT Condensed';-inkscape-font-specification:'Bernard MT Condensed,  Condensed';writing-mode:lr-tb;direction:ltr;opacity:1;fill:#370101;stroke-width:1"
       x="135.06895"
       y="119.09592"
       id="text1"
       transform="scale(1.0365916,0.96470008)"><tspan
         sodipodi:role="line"
         id="tspan1"
         x="135.06895"
         y="119.09592"
         style="font-style:normal;font-variant:normal;font-weight:normal;font-stretch:normal;font-family:'Segoe UI';-inkscape-font-specification:'Segoe UI';stroke-width:1">Microsoft </tspan><tspan
         sodipodi:role="line"
         x="135.06895"
         y="153.54178"
         style="font-style:normal;font-variant:normal;font-weight:normal;font-stretch:normal;font-family:'Segoe UI';-inkscape-font-specification:'Segoe UI';stroke-width:1"
         id="tspan2">Entra ID</tspan></text></g></svg>
