<svg version="1.1" id="Layer_1" xmlns="http://www.w3.org/2000/svg" xmlns:xlink="http://www.w3.org/1999/xlink" x="0px" y="0px" viewBox="0 0 600 246" style="enable-background:new 0 0 600 246;" xml:space="preserve">
 <style type="text/css">
  .st0{fill-rule:evenodd;clip-rule:evenodd;fill:#E7792B;}
	.st1{fill-rule:evenodd;clip-rule:evenodd;fill:#E26129;}
	.st2{fill-rule:evenodd;clip-rule:evenodd;fill:#161733;}
 </style>
 <path id="Fill-1" class="st0" d="M2.3,162.8l80.4,80.3l80.4-80.3L82.7,82.5L2.3,162.8">
 </path>
 <path id="Fill-2" class="st1" d="M82.7,2.3L2.3,82.5l80.4,80.3l80.4-80.3L82.7,2.3">
 </path>
 <path id="Fill-3" class="st2" d="M202.3,150.5l10.7-12.8c7.4,6.1,15.2,10,24.6,10c7.4,0,11.9-2.9,11.9-7.7v-0.2
	c0-4.6-2.8-6.9-16.6-10.4c-16.6-4.2-27.3-8.8-27.3-25.1v-0.2c0-14.9,12-24.8,28.8-24.8c12,0,22.2,3.8,30.6,10.4l-9.4,13.6
	c-7.3-5.1-14.5-8.1-21.4-8.1s-10.6,3.2-10.6,7.2v0.2c0,5.4,3.5,7.2,17.8,10.8c16.7,4.3,26.1,10.3,26.1,24.6v0.2
	c0,16.3-12.5,25.5-30.2,25.5C224.7,163.6,212.2,159.3,202.3,150.5">
 </path>
 <path id="Fill-4" class="st2" d="M275.6,131.4v-0.2c0-18.1,14.6-32.7,34.2-32.7c19.5,0,34,14.4,34,32.5v0.2
	c0,18.1-14.6,32.7-34.2,32.7C290,163.9,275.6,149.4,275.6,131.4 M326.1,131.4v-0.2c0-9.3-6.7-17.4-16.6-17.4
	c-10.2,0-16.4,7.9-16.4,17.1v0.2c0,9.3,6.7,17.4,16.6,17.4C320,148.5,326.1,140.6,326.1,131.4">
 </path>
 <path id="Fill-5" class="st2" d="M351.4,131.4v-0.2c0-18,13.8-32.7,33-32.7c11.9,0,19.3,4,25.2,10.6l-10.9,11.7
	c-4-4.2-8-6.9-14.3-6.9c-8.9,0-15.3,7.9-15.3,17.1v0.2c0,9.6,6.2,17.4,16,17.4c6,0,10.1-2.6,14.5-6.7l10.5,10.6
	c-6.1,6.7-13.2,11.5-25.8,11.5C365.3,163.9,351.4,149.3,351.4,131.4">
 </path>
 <path id="Fill-6" class="st2" d="M418.9,140.3V99.6h17.9v35.1c0,8.5,4,12.8,10.8,12.8c6.8,0,11.2-4.3,11.2-12.8V99.6h17.9v62.9
	h-17.9v-8.9c-4.1,5.3-9.4,10.1-18.5,10.1C426.8,163.6,418.9,154.7,418.9,140.3">
 </path>
 <path id="Fill-7" class="st2" d="M490.5,99.6h17.9v12.7c3.6-8.7,9.5-14.3,20.1-13.8v18.7h-0.9c-11.9,0-19.2,7.2-19.2,22.2v23.2
	h-17.9L490.5,99.6">
 </path>
 <path id="Fill-8" class="st2" d="M532.6,131.4v-0.2c0-18,12.8-32.7,31.2-32.7c21.1,0,30.7,16.3,30.7,34.2c0,1.4-0.1,3.1-0.2,4.7
	h-43.9c1.8,8.1,7.4,12.3,15.4,12.3c6,0,10.4-1.9,15.3-6.5l10.2,9c-5.9,7.3-14.4,11.7-25.8,11.7C546.6,163.9,532.6,150.6,532.6,131.4
	 M577,126.1c-1.1-8-5.8-13.4-13.3-13.4c-7.4,0-12.2,5.3-13.6,13.4H577">
 </path>
 <path id="Fill-9" class="st2" d="M82.7,162.8h80.4l-40.3-40.1L82.7,162.8">
 </path>
</svg>